<?xml version="1.0" encoding="UTF-8"?>
<!DOCTYPE svg PUBLIC "-//W3C//DTD SVG 1.1//EN" "http://www.w3.org/Graphics/SVG/1.1/DTD/svg11.dtd">
<svg xmlns="http://www.w3.org/2000/svg" version="1.1" width="48px" height="560px" style="shape-rendering:geometricPrecision; text-rendering:geometricPrecision; image-rendering:optimizeQuality; fill-rule:evenodd; clip-rule:evenodd" xmlns:xlink="http://www.w3.org/1999/xlink">
<g><path style="opacity:1" fill="#fefefe" d="M -0.5,-0.5 C 15.5,-0.5 31.5,-0.5 47.5,-0.5C 47.5,5.5 47.5,11.5 47.5,17.5C 34.3966,28.0329 26.7299,41.6995 24.5,58.5C 23.8333,58.5 23.1667,58.5 22.5,58.5C 20.2645,41.6871 12.5979,28.0205 -0.5,17.5C -0.5,11.5 -0.5,5.5 -0.5,-0.5 Z"/></g>
<g><path style="opacity:1" fill="#c4c4c4" d="M -0.5,17.5 C 12.5979,28.0205 20.2645,41.6871 22.5,58.5C 22.7104,64.9661 23.377,64.9661 24.5,58.5C 26.7299,41.6995 34.3966,28.0329 47.5,17.5C 47.5,20.8333 47.5,24.1667 47.5,27.5C 38.3233,36.5198 32.8233,47.5198 31,60.5C 30.5,182.5 30.3333,304.5 30.5,426.5C 20.1667,426.5 9.83333,426.5 -0.5,426.5C -0.5,424.167 -0.5,421.833 -0.5,419.5C 5.16667,419.5 10.8333,419.5 16.5,419.5C 16.6667,299.5 16.5,179.5 16,59.5C 13.6447,46.7891 8.14465,35.7891 -0.5,26.5C -0.5,23.5 -0.5,20.5 -0.5,17.5 Z"/></g>
<g><path style="opacity:1" fill="#f1f1f1" d="M -0.5,26.5 C 8.14465,35.7891 13.6447,46.7891 16,59.5C 16.5,179.5 16.6667,299.5 16.5,419.5C 10.8333,419.5 5.16667,419.5 -0.5,419.5C -0.5,288.5 -0.5,157.5 -0.5,26.5 Z"/></g>
<g><path style="opacity:1" fill="#fefefe" d="M 47.5,27.5 C 47.5,204.833 47.5,382.167 47.5,559.5C 31.5,559.5 15.5,559.5 -0.5,559.5C -0.5,515.167 -0.5,470.833 -0.5,426.5C 9.83333,426.5 20.1667,426.5 30.5,426.5C 30.3333,304.5 30.5,182.5 31,60.5C 32.8233,47.5198 38.3233,36.5198 47.5,27.5 Z"/></g>
<g><path style="opacity:1" fill="#e0e0e0" d="M 22.5,58.5 C 23.1667,58.5 23.8333,58.5 24.5,58.5C 23.377,64.9661 22.7104,64.9661 22.5,58.5 Z"/></g>
</svg>
